<svg width="120" height="22" viewBox="0 0 120 22" fill="none" xmlns="http://www.w3.org/2000/svg">
<path fill-rule="evenodd" clip-rule="evenodd" d="M12.4099 2.10271L15.8217 8.04083C16.2085 8.714 16.4176 9.45876 16.45 10.2095C20.1026 11.1683 22.6232 13.2049 22.6232 15.5624C22.6232 18.8418 17.7451 21.5003 11.7277 21.5003C5.71014 21.5003 0.832031 18.8418 0.832031 15.5624C0.832031 13.205 3.35292 11.169 7.00526 10.2101C6.96696 11.0983 7.17604 11.9949 7.63367 12.7912L11.0453 18.7295C11.3055 19.1822 11.4852 19.6674 11.5851 20.1651L11.7277 19.9169C12.5721 18.4471 12.5721 16.6362 11.7277 15.1665L8.99002 10.4011C8.15413 8.93387 8.15674 7.13043 8.99829 5.66555L9.14078 5.4174C9.24075 5.91502 9.42038 6.40025 9.68053 6.85312L13.7747 13.9789C14.0348 14.4318 14.2146 14.917 14.3144 15.4147L14.4571 15.1665C15.3014 13.6967 15.3014 11.8858 14.4571 10.4161L11.7275 5.66541C10.8832 4.19557 10.8832 2.38499 11.7277 0.915149L11.8702 0.666992C11.97 1.16462 12.1498 1.64985 12.4099 2.10271ZM26.737 20.3487C26.7779 19.5055 26.9006 18.9297 27.1257 18.2716C28.2718 18.8064 29.7454 19.0735 30.871 19.0735C32.7744 19.0735 33.8387 18.4566 33.8387 17.2432C33.8387 16.0504 33.061 15.4951 31.1371 14.652L30.0933 14.1996C28.1695 13.3563 26.8597 12.2663 26.8597 10.0864C26.8597 7.742 28.4767 6.24052 31.7921 6.24052C33.1223 6.24052 34.3707 6.42569 35.5373 6.837C35.4759 7.65962 35.3327 8.29721 35.128 8.89355C34.0228 8.48224 32.713 8.29721 31.7715 8.29721C29.991 8.29721 29.1724 8.99648 29.1724 10.0864C29.1724 11.1558 29.9706 11.7727 31.4031 12.3899L32.5084 12.8627C35.1075 13.9733 36.1921 15.1456 36.1921 17.1404C36.1921 19.5055 34.4117 21.1302 30.9324 21.1302C29.2542 21.1302 27.8831 20.8835 26.737 20.3487ZM64.9482 19.1147C65.603 19.1147 66.2172 18.9912 66.7084 18.8063C66.647 19.4231 66.565 20.1225 66.4423 20.7187C65.8282 20.9655 65.1734 21.0477 64.5389 21.0477C62.3491 21.0477 60.9574 20.0401 60.9574 17.5311V6.73398C61.6532 6.50784 62.5128 6.40491 63.2088 6.40491V10.2919H66.7697C66.7288 10.9911 66.6674 11.6287 66.565 12.2251H63.2088V17.2639C63.2088 18.6006 63.8636 19.1147 64.9482 19.1147ZM99.9676 6.40491V20.8012H97.9006L97.7779 19.4849C97.2047 20.4516 96.3247 21.0477 94.8512 21.0477C92.1498 21.0477 90.3486 19.0734 90.3486 15.6186C90.3486 11.9988 92.2724 9.94238 96.0587 9.94238C96.6522 9.94238 97.2047 10.0041 97.7369 10.1068V6.71343C98.4328 6.46673 99.2308 6.40491 99.9676 6.40491ZM111.286 16.3999H104.102C104.389 18.2303 105.453 19.1146 107.459 19.1146C108.687 19.1146 109.935 18.8472 111.061 18.3331C110.979 18.9296 110.856 19.7109 110.713 20.3895C109.689 20.8626 108.605 21.0477 107.397 21.0477C103.632 21.0477 101.81 18.95 101.81 15.4334C101.81 12.369 103.222 9.9423 106.804 9.9423C110.017 9.9423 111.409 12.0604 111.409 14.6519C111.409 15.2895 111.368 15.8036 111.286 16.3999ZM118.961 11.9577C119.084 11.5259 119.166 10.7032 119.166 10.0244C118.674 9.96286 117.897 9.9423 117.201 9.9423C115.932 9.9423 114.315 10.189 113.353 10.5181V20.8011H115.604V11.9987C116.157 11.9166 116.71 11.8754 117.262 11.8754C117.897 11.8754 118.429 11.8959 118.961 11.9577ZM109.137 14.508H104.061C104.245 12.7599 105.085 11.8344 106.681 11.8344C108.236 11.8344 109.137 12.8216 109.137 14.508ZM97.7363 12.0812V18.4153C97.1224 18.8885 96.3856 19.1971 95.4852 19.1971C93.4795 19.1971 92.6403 17.7162 92.6403 15.6187C92.6403 13.2742 93.7044 11.8755 95.9353 11.8755C96.5289 11.8755 97.1429 11.9579 97.7363 12.0812ZM88.5474 20.8011V13.8909C88.5474 11.4024 87.3401 9.9423 83.5743 9.9423C82.4895 9.9423 80.9136 10.1684 79.4811 10.5181V20.8011H81.7324V12.04C82.3463 11.9372 82.9808 11.8754 83.5129 11.8754C85.7642 11.8754 86.2964 12.657 86.2964 14.2817V20.8011H88.5474ZM74.7728 18.4566V11.9988C74.3023 11.9168 73.7904 11.8755 73.1561 11.8755C70.8229 11.8755 69.7383 13.3153 69.7383 15.6187C69.7383 17.7162 70.5775 19.1971 72.583 19.1971C73.4629 19.1971 74.1795 18.9092 74.7728 18.4566ZM77.0245 20.8011V10.5181C75.8376 10.1068 74.63 9.9423 73.1565 9.9423C69.3703 9.9423 67.4466 11.9987 67.4466 15.6186C67.4466 19.0734 69.2475 21.0477 71.9491 21.0477C73.3816 21.0477 74.2616 20.472 74.8349 19.5672L74.9575 20.8011H77.0245ZM58.7053 20.8011V13.8909C58.7053 11.4024 57.4979 9.9423 53.7321 9.9423C52.6474 9.9423 51.0715 10.1684 49.639 10.5181V20.8011H51.8902V12.04C52.5042 11.9372 53.1386 11.8754 53.6708 11.8754C55.9219 11.8754 56.4541 12.657 56.4541 14.2817V20.8011H58.7053ZM44.9323 18.4566V11.9988C44.4616 11.9168 43.95 11.8755 43.3155 11.8755C40.9824 11.8755 39.8978 13.3153 39.8978 15.6187C39.8978 17.7162 40.7369 19.1971 42.7425 19.1971C43.6225 19.1971 44.3389 18.9092 44.9323 18.4566ZM47.1825 20.8011V10.5181C45.9955 10.1068 44.788 9.9423 43.3144 9.9423C39.5282 9.9423 37.6045 11.9987 37.6045 15.6186C37.6045 19.0734 39.4054 21.0477 42.1069 21.0477C43.5395 21.0477 44.4196 20.472 44.9928 19.5672L45.1155 20.8011H47.1825Z" fill="white"/>
</svg>
